<?xml version="1.0" encoding="UTF-8" standalone="no"?>
<!-- Created with Inkscape (http://www.inkscape.org/) -->

<svg
   xmlns:dc="http://purl.org/dc/elements/1.1/"
   xmlns:cc="http://creativecommons.org/ns#"
   xmlns:rdf="http://www.w3.org/1999/02/22-rdf-syntax-ns#"
   xmlns:svg="http://www.w3.org/2000/svg"
   xmlns="http://www.w3.org/2000/svg"
   xmlns:sodipodi="http://sodipodi.sourceforge.net/DTD/sodipodi-0.dtd"
   xmlns:inkscape="http://www.inkscape.org/namespaces/inkscape"
   width="210mm"
   height="297mm"
   id="svg2"
   version="1.1"
   inkscape:version="0.48.2 r9819"
   sodipodi:docname="indicator-ai.svg">
  <defs
     id="defs4" />
  <sodipodi:namedview
     id="base"
     pagecolor="#ffffff"
     bordercolor="#666666"
     borderopacity="1.0"
     inkscape:pageopacity="0.0"
     inkscape:pageshadow="2"
     inkscape:zoom="4.2930576"
     inkscape:cx="256.24837"
     inkscape:cy="547.71714"
     inkscape:document-units="px"
     inkscape:current-layer="layer1"
     showgrid="true"
     inkscape:snap-grids="true"
     showguides="true"
     inkscape:guide-bbox="true"
     inkscape:window-width="1920"
     inkscape:window-height="960"
     inkscape:window-x="0"
     inkscape:window-y="0"
     inkscape:window-maximized="1">
    <inkscape:grid
       type="xygrid"
       id="grid3788" />
  </sodipodi:namedview>
  <metadata
     id="metadata7">
    <rdf:RDF>
      <cc:Work
         rdf:about="">
        <dc:format>image/svg+xml</dc:format>
        <dc:type
           rdf:resource="http://purl.org/dc/dcmitype/StillImage" />
        <dc:title></dc:title>
      </cc:Work>
    </rdf:RDF>
  </metadata>
  <g
     inkscape:label="Ebene 1"
     inkscape:groupmode="layer"
     id="layer1">
    <rect
       style="fill:#ff0000;fill-opacity:1;stroke:#000000;stroke-width:0;stroke-linecap:butt;stroke-linejoin:miter;stroke-miterlimit:4;stroke-opacity:1;stroke-dasharray:none;stroke-dashoffset:0"
       id="rect3946"
       width="104.99999"
       height="105"
       x="212.99998"
       y="431.36218"
       inkscape:export-xdpi="89.900848"
       inkscape:export-ydpi="89.900848" />
    <path
       style="fill:#ffffff;fill-opacity:0.49803922;stroke:#000000;stroke-width:4;stroke-linecap:butt;stroke-linejoin:miter;stroke-miterlimit:4;stroke-opacity:1;stroke-dasharray:none;stroke-dashoffset:0"
       d="m 274.7,433.36218 c -3.49291,0 -6.77394,0.93528 -9.58123,2.59803 -2.00992,-0.78434 -4.19916,-1.18891 -6.51875,-1.18891 -7.72667,0 -14.22668,4.80736 -16.18749,11.36078 -6.13719,2.73651 -10.4125,8.92548 -10.4125,16.11649 0,6.44731 3.43991,12.03418 8.57501,15.10369 1.18968,8.56238 8.49004,15.19175 17.32498,15.19175 2.07311,0 4.0608,-0.39081 5.90625,-1.05682 2.99184,2.40426 6.7676,3.87499 10.89373,3.87499 4.32758,0 8.27651,-1.60779 11.33125,-4.22726 2.10335,0.90108 4.43854,1.40909 6.86875,1.40909 9.66496,0 17.49998,-7.8859 17.49998,-17.61364 0,-0.35577 -0.0231,-0.70626 -0.0437,-1.0568 3.43559,-2.70828 5.64374,-6.89225 5.64374,-11.625 0,-5.96549 -3.52226,-11.08957 -8.57499,-13.43041 -1.04204,-7.93634 -7.75518,-14.04686 -15.925,-14.04686 -2.41294,0 -4.68291,0.53974 -6.73747,1.49715 -2.91294,-1.84661 -6.36566,-2.90627 -10.0625,-2.90627 z"
       id="path3898"
       inkscape:connector-curvature="0"
       inkscape:export-filename="/Users/chschu/Documents/Workspace/HexaFlip/HexaFlip/Tools/indicator-ai.png"
       inkscape:export-xdpi="180"
       inkscape:export-ydpi="180" />
    <path
       sodipodi:type="arc"
       style="fill:#ffffff;fill-opacity:0.49803922;stroke:#000000;stroke-width:1.87131238;stroke-linecap:butt;stroke-linejoin:round;stroke-miterlimit:4;stroke-opacity:1;stroke-dasharray:none;stroke-dashoffset:0"
       id="path3009"
       sodipodi:cx="184.46428"
       sodipodi:cy="539.86218"
       sodipodi:rx="3.0357144"
       sodipodi:ry="3.0357144"
       d="m 187.49999,539.86218 a 3.0357144,3.0357144 0 1 1 -6.07143,0 3.0357144,3.0357144 0 1 1 6.07143,0 z"
       transform="matrix(2.1339039,0,0,2.1411767,-172.10697,-628.07813)"
       inkscape:export-filename="/Users/chschu/Documents/Workspace/HexaFlip/HexaFlip/Tools/indicator-ai.png"
       inkscape:export-xdpi="180"
       inkscape:export-ydpi="180" />
    <path
       sodipodi:type="arc"
       style="fill:#ffffff;fill-opacity:0.49803922;stroke:#000000;stroke-width:2.34669185;stroke-linecap:butt;stroke-linejoin:round;stroke-miterlimit:4;stroke-opacity:1;stroke-dasharray:none;stroke-dashoffset:0"
       id="path3011"
       sodipodi:cx="228.92857"
       sodipodi:cy="540.57648"
       sodipodi:rx="6.25"
       sodipodi:ry="6.0714288"
       d="m 235.17857,540.57648 a 6.25,6.0714288 0 1 1 -12.5,0 6.25,6.0714288 0 1 1 12.5,0 z"
       transform="matrix(1.6800008,0,0,1.7294114,-153.10018,-432.01691)"
       inkscape:export-filename="/Users/chschu/Documents/Workspace/HexaFlip/HexaFlip/Tools/indicator-ai.png"
       inkscape:export-xdpi="180"
       inkscape:export-ydpi="180" />
  </g>
</svg>
